<svg xmlns="http://www.w3.org/2000/svg" viewBox="0 0 800 800" width="800" height="800">
<path d="M 301.5335 800 L 286.99054 694.5323 L 188.31427 703.26544 L 106.0472 747.42566 L 156.2662 800 Z " style="fill:rgb(247,179,225);stroke:none;fill-opacity:1;stroke-opacity:1;"/>
<path d="M 491.7142 418.01547 L 496.53632 368.96994 L 409.28766 287.69885 L 288.33252 337.7728 L 298.6224 368.08575 L 465.03964 420.33817 Z " style="fill:rgb(196,205,204);stroke:none;fill-opacity:1;stroke-opacity:1;"/>
<path d="M 42.35201 717.55707 L 41.902805 716.22327 L 36.596775 716.6928 L 31.655312 787.3586 L 32.140423 787.09814 Z " style="fill:rgb(213,237,183);stroke:none;fill-opacity:1;stroke-opacity:1;"/>
<path d="M 748.9132 509.46997 L 734.93555 591.03595 L 797.5362 649.34766 L 800 649.12964 L 800 525.51044 Z " style="fill:rgb(232,211,241);stroke:none;fill-opacity:1;stroke-opacity:1;"/>
<path d="M 31.249046 793.16846 L 31.655312 787.3586 L 8.105278 800 L 30.245876 800 Z " style="fill:rgb(170,207,181);stroke:none;fill-opacity:1;stroke-opacity:1;"/>
<path d="M 251.74281 438.91074 L 240.52591 357.56415 L 192.67705 377.373 L 249.72406 439.08655 Z " style="fill:rgb(177,205,203);stroke:none;fill-opacity:1;stroke-opacity:1;"/>
<path d="M 281.31128 653.34546 L 286.99054 694.5323 L 371.94604 687.01355 L 302.63504 641.89905 Z " style="fill:rgb(194,229,228);stroke:none;fill-opacity:1;stroke-opacity:1;"/>
<path d="M 11.479831 452.3864 L 21.56818 458.9529 L 54.82235 456.05737 L 56.37884 433.79874 Z " style="fill:rgb(249,230,180);stroke:none;fill-opacity:1;stroke-opacity:1;"/>
<path d="M 522.92004 734.63043 L 565.58057 669.8764 L 470.81522 678.26337 Z " style="fill:rgb(174,178,226);stroke:none;fill-opacity:1;stroke-opacity:1;"/>
<path d="M 73.56593 713.42096 L 106.0472 747.42566 L 188.31427 703.26544 Z " style="fill:rgb(245,236,192);stroke:none;fill-opacity:1;stroke-opacity:1;"/>
<path d="M 515.396 177.14746 L 551.9811 216.892 L 561.6255 224.63284 L 609.4401 204.83818 L 605.483 200.10486 L 522.1649 108.30031 Z " style="fill:rgb(207,244,233);stroke:none;fill-opacity:1;stroke-opacity:1;"/>
<path d="M 780.4338 392.87555 L 775.8845 387.8629 L 769.3598 391.36536 L 772.141 393.59763 Z " style="fill:rgb(218,192,190);stroke:none;fill-opacity:1;stroke-opacity:1;"/>
<path d="M 268.50494 279.36298 L 324.62057 208.8325 L 269.38593 157.38211 L 238.7656 191.75415 Z " style="fill:rgb(224,244,222);stroke:none;fill-opacity:1;stroke-opacity:1;"/>
<path d="M 131.94046 311.66803 L 129.0987 314.85797 L 137.25708 317.41956 Z " style="fill:rgb(235,221,219);stroke:none;fill-opacity:1;stroke-opacity:1;"/>
<path d="M 8.379388 450.36832 L 59.210133 393.3096 L 66.07971 295.07098 L 0 274.32297 L 0 444.91418 Z " style="fill:rgb(231,185,201);stroke:none;fill-opacity:1;stroke-opacity:1;"/>
<path d="M 797.3707 226.6989 L 800 230.16705 L 800 222.61884 L 798.3641 220.90211 Z " style="fill:rgb(249,247,209);stroke:none;fill-opacity:1;stroke-opacity:1;"/>
<path d="M 731.3609 411.76282 L 718.9066 398.23297 L 544.2758 413.43875 L 595.7384 461.37552 L 622.99384 469.93332 Z " style="fill:rgb(171,238,199);stroke:none;fill-opacity:1;stroke-opacity:1;"/>
<path d="M 766.6126 392.84003 L 767.5781 393.99496 L 768.7188 393.89563 L 769.13135 391.48798 Z " style="fill:rgb(249,173,185);stroke:none;fill-opacity:1;stroke-opacity:1;"/>
<path d="M 252.12526 441.68414 L 277.47473 625.5222 L 302.63504 641.89905 L 377.86234 601.5177 L 365.0888 563.88824 Z " style="fill:rgb(171,179,206);stroke:none;fill-opacity:1;stroke-opacity:1;"/>
<path d="M 53.18098 479.52966 L 75.199936 493.86176 L 81.08707 453.77036 L 54.82235 456.05737 Z " style="fill:rgb(210,237,228);stroke:none;fill-opacity:1;stroke-opacity:1;"/>
<path d="M 780.4338 392.87555 L 800 414.43472 L 800 391.17184 Z " style="fill:rgb(170,193,188);stroke:none;fill-opacity:1;stroke-opacity:1;"/>
<path d="M 30.771328 800 L 31.249046 793.16846 L 30.245876 800 Z " style="fill:rgb(253,184,233);stroke:none;fill-opacity:1;stroke-opacity:1;"/>
<path d="M 31.655312 787.3586 L 36.596775 716.6928 L 0 719.9317 L 0 800 L 8.105278 800 Z " style="fill:rgb(217,233,216);stroke:none;fill-opacity:1;stroke-opacity:1;"/>
<path d="M 31.655312 787.3586 L 31.249046 793.16846 L 32.140423 787.09814 Z " style="fill:rgb(236,190,200);stroke:none;fill-opacity:1;stroke-opacity:1;"/>
<path d="M 56.37884 433.79874 L 54.82235 456.05737 L 81.08707 453.77036 L 85.80882 421.6151 Z " style="fill:rgb(218,185,194);stroke:none;fill-opacity:1;stroke-opacity:1;"/>
<path d="M 106.06425 283.6751 L 69.63255 244.26324 L 66.07971 295.07098 L 102.70233 306.56992 Z " style="fill:rgb(219,234,216);stroke:none;fill-opacity:1;stroke-opacity:1;"/>
<path d="M 5.926347 609.3919 L 0 616.8406 L 0 636.4047 L 23.203732 660.6967 Z " style="fill:rgb(179,206,200);stroke:none;fill-opacity:1;stroke-opacity:1;"/>
<path d="M 465.13318 32.225513 L 459.52252 39.277412 L 522.1649 108.30031 L 522.856 101.270676 Z " style="fill:rgb(198,249,246);stroke:none;fill-opacity:1;stroke-opacity:1;"/>
<path d="M 775.8845 387.8629 L 780.4338 392.87555 L 800 391.17184 L 800 374.91797 Z " style="fill:rgb(170,209,223);stroke:none;fill-opacity:1;stroke-opacity:1;"/>
<path d="M 770.72656 382.17953 L 769.1774 391.21902 L 769.3598 391.36536 L 775.8845 387.8629 Z " style="fill:rgb(198,207,185);stroke:none;fill-opacity:1;stroke-opacity:1;"/>
<path d="M 800 414.43472 L 780.4338 392.87555 L 772.141 393.59763 L 800 415.95792 Z " style="fill:rgb(185,211,184);stroke:none;fill-opacity:1;stroke-opacity:1;"/>
<path d="M 371.94604 687.01355 L 416.79355 716.2047 L 405.8654 684.0116 Z " style="fill:rgb(212,228,237);stroke:none;fill-opacity:1;stroke-opacity:1;"/>
<path d="M 302.63504 641.89905 L 371.94604 687.01355 L 405.8654 684.0116 L 377.86234 601.5177 Z " style="fill:rgb(173,184,253);stroke:none;fill-opacity:1;stroke-opacity:1;"/>
<path d="M 3.719592 455.59906 L 0 459.7744 L 0 460.83093 L 21.56818 458.9529 L 11.479831 452.3864 Z " style="fill:rgb(242,198,236);stroke:none;fill-opacity:1;stroke-opacity:1;"/>
<path d="M 479.8541 800 L 499.5652 770.0807 L 459.65396 744.1026 L 454.1582 800 Z " style="fill:rgb(195,250,207);stroke:none;fill-opacity:1;stroke-opacity:1;"/>
<path d="M 8.379388 450.36832 L 3.719592 455.59906 L 11.479831 452.3864 Z " style="fill:rgb(189,246,201);stroke:none;fill-opacity:1;stroke-opacity:1;"/>
<path d="M 90.11877 503.57242 L 70.07461 528.76544 L 47.03755 685.6483 L 73.56593 713.42096 L 188.31427 703.26544 L 281.31128 653.34546 L 277.47473 625.5222 Z " style="fill:rgb(192,254,232);stroke:none;fill-opacity:1;stroke-opacity:1;"/>
<path d="M 70.07461 528.76544 L 47.77844 556.78894 L 39.331745 677.5812 L 47.03755 685.6483 Z " style="fill:rgb(218,189,251);stroke:none;fill-opacity:1;stroke-opacity:1;"/>
<path d="M 21.56818 458.9529 L 53.18098 479.52966 L 54.82235 456.05737 Z " style="fill:rgb(201,219,171);stroke:none;fill-opacity:1;stroke-opacity:1;"/>
<path d="M 496.53632 368.96994 L 508.56772 246.5981 L 409.28766 287.69885 Z " style="fill:rgb(204,180,186);stroke:none;fill-opacity:1;stroke-opacity:1;"/>
<path d="M 565.58057 669.8764 L 662.1733 523.2588 L 611.53125 476.08633 L 479.01086 547.2221 L 466.57782 673.6793 L 470.81522 678.26337 Z " style="fill:rgb(203,188,192);stroke:none;fill-opacity:1;stroke-opacity:1;"/>
<path d="M 797.5362 649.34766 L 800 651.6427 L 800 649.12964 Z " style="fill:rgb(171,190,226);stroke:none;fill-opacity:1;stroke-opacity:1;"/>
<path d="M 324.62057 208.8325 L 409.3137 102.38376 L 356.29236 59.82754 L 269.38593 157.38211 Z " style="fill:rgb(229,197,192);stroke:none;fill-opacity:1;stroke-opacity:1;"/>
<path d="M 204.60167 97.03634 L 203.22571 87.05762 L 173.6735 0 L 147.71979 0 L 142.02948 38.751053 Z " style="fill:rgb(251,251,207);stroke:none;fill-opacity:1;stroke-opacity:1;"/>
<path d="M 490.6939 428.3932 L 479.01086 547.2221 L 611.53125 476.08633 L 595.7384 461.37552 Z " style="fill:rgb(205,174,225);stroke:none;fill-opacity:1;stroke-opacity:1;"/>
<path d="M 100.42822 0 L 142.02948 38.751053 L 147.71979 0 Z " style="fill:rgb(193,194,238);stroke:none;fill-opacity:1;stroke-opacity:1;"/>
<path d="M 465.03964 420.33817 L 298.6224 368.08575 L 320.6283 432.91263 Z " style="fill:rgb(244,187,183);stroke:none;fill-opacity:1;stroke-opacity:1;"/>
<path d="M 733.8478 414.46442 L 737.96204 408.21942 L 731.3609 411.76282 Z " style="fill:rgb(248,200,223);stroke:none;fill-opacity:1;stroke-opacity:1;"/>
<path d="M 251.13043 353.17398 L 298.6224 368.08575 L 288.33252 337.7728 Z " style="fill:rgb(210,201,194);stroke:none;fill-opacity:1;stroke-opacity:1;"/>
<path d="M 218.0445 342.78555 L 191.52098 376.12234 L 192.67705 377.373 L 240.52591 357.56415 L 239.41327 349.495 Z " style="fill:rgb(209,240,179);stroke:none;fill-opacity:1;stroke-opacity:1;"/>
<path d="M 0 168.93463 L 69.63255 244.26324 L 86.71324 0 L 25.259613 0 L 0 7.6204777 Z " style="fill:rgb(211,180,174);stroke:none;fill-opacity:1;stroke-opacity:1;"/>
<path d="M 622.99384 469.93332 L 595.7384 461.37552 L 611.53125 476.08633 Z " style="fill:rgb(245,183,239);stroke:none;fill-opacity:1;stroke-opacity:1;"/>
<path d="M 59.210133 393.3096 L 96.03532 351.9724 L 102.70233 306.56992 L 66.07971 295.07098 Z " style="fill:rgb(253,233,207);stroke:none;fill-opacity:1;stroke-opacity:1;"/>
<path d="M 490.6939 428.3932 L 491.7142 418.01547 L 465.03964 420.33817 Z " style="fill:rgb(201,239,199);stroke:none;fill-opacity:1;stroke-opacity:1;"/>
<path d="M 496.53632 368.96994 L 491.7142 418.01547 L 544.2758 413.43875 Z " style="fill:rgb(225,201,184);stroke:none;fill-opacity:1;stroke-opacity:1;"/>
<path d="M 459.65396 744.1026 L 466.086 678.68195 L 405.8654 684.0116 L 416.79355 716.2047 Z " style="fill:rgb(254,181,249);stroke:none;fill-opacity:1;stroke-opacity:1;"/>
<path d="M 426.5888 80.67105 L 459.52252 39.277412 L 423.87595 0 L 409.58966 0 L 381.4289 31.61118 Z " style="fill:rgb(180,248,217);stroke:none;fill-opacity:1;stroke-opacity:1;"/>
<path d="M 522.856 101.270676 L 605.483 200.10486 L 609.6863 204.73628 L 733.9412 153.29625 L 587.8624 0 L 532.8128 0 Z " style="fill:rgb(228,237,249);stroke:none;fill-opacity:1;stroke-opacity:1;"/>
<path d="M 454.1582 800 L 459.65396 744.1026 L 416.79355 716.2047 L 445.23834 800 Z " style="fill:rgb(206,185,225);stroke:none;fill-opacity:1;stroke-opacity:1;"/>
<path d="M 757.2623 381.6556 L 766.6126 392.84003 L 769.13135 391.48798 L 769.1774 391.21902 Z " style="fill:rgb(191,179,244);stroke:none;fill-opacity:1;stroke-opacity:1;"/>
<path d="M 466.57782 673.6793 L 392.57327 593.62103 L 377.86234 601.5177 L 405.8654 684.0116 L 466.086 678.68195 Z " style="fill:rgb(184,234,209);stroke:none;fill-opacity:1;stroke-opacity:1;"/>
<path d="M 559.8016 225.38791 L 551.9811 216.892 L 514.45 186.76868 L 508.56772 246.5981 Z " style="fill:rgb(228,225,248);stroke:none;fill-opacity:1;stroke-opacity:1;"/>
<path d="M 365.0888 563.88824 L 392.57327 593.62103 L 479.01086 547.2221 L 490.6939 428.3932 L 465.03964 420.33817 L 320.6283 432.91263 Z " style="fill:rgb(177,219,231);stroke:none;fill-opacity:1;stroke-opacity:1;"/>
<path d="M 491.7142 418.01547 L 490.6939 428.3932 L 595.7384 461.37552 L 544.2758 413.43875 Z " style="fill:rgb(184,241,212);stroke:none;fill-opacity:1;stroke-opacity:1;"/>
<path d="M 800 176.12024 L 778.6351 134.79356 L 739.8639 150.84433 L 772.00696 193.24274 L 798.3641 220.90211 L 800 211.35588 Z " style="fill:rgb(174,202,197);stroke:none;fill-opacity:1;stroke-opacity:1;"/>
<path d="M 739.8639 150.84433 L 625.506 0 L 587.8624 0 L 733.9412 153.29625 Z " style="fill:rgb(190,187,237);stroke:none;fill-opacity:1;stroke-opacity:1;"/>
<path d="M 0 7.6204777 L 25.259613 0 L 0 0 Z " style="fill:rgb(214,187,201);stroke:none;fill-opacity:1;stroke-opacity:1;"/>
<path d="M 60.622025 771.8095 L 70.11547 800 L 156.2662 800 L 106.0472 747.42566 Z " style="fill:rgb(245,182,214);stroke:none;fill-opacity:1;stroke-opacity:1;"/>
<path d="M 42.35201 717.55707 L 60.622025 771.8095 L 106.0472 747.42566 L 73.56593 713.42096 L 42.55636 716.1654 Z " style="fill:rgb(219,196,239);stroke:none;fill-opacity:1;stroke-opacity:1;"/>
<path d="M 23.203732 660.6967 L 37.536312 703.25696 L 39.331745 677.5812 Z " style="fill:rgb(221,177,189);stroke:none;fill-opacity:1;stroke-opacity:1;"/>
<path d="M 73.56593 713.42096 L 47.03755 685.6483 L 42.55636 716.1654 Z " style="fill:rgb(219,172,240);stroke:none;fill-opacity:1;stroke-opacity:1;"/>
<path d="M 37.536312 703.25696 L 41.902805 716.22327 L 42.55636 716.1654 L 47.03755 685.6483 L 39.331745 677.5812 Z " style="fill:rgb(228,254,245);stroke:none;fill-opacity:1;stroke-opacity:1;"/>
<path d="M 684.5676 489.26648 L 662.1733 523.2588 L 734.93555 591.03595 L 748.9132 509.46997 Z " style="fill:rgb(190,181,175);stroke:none;fill-opacity:1;stroke-opacity:1;"/>
<path d="M 723.82495 655.8713 L 699.1261 800 L 800 800 L 800 651.6427 L 797.5362 649.34766 Z " style="fill:rgb(211,206,189);stroke:none;fill-opacity:1;stroke-opacity:1;"/>
<path d="M 761.68243 372.21426 L 776.21423 350.15668 L 797.3707 226.6989 L 772.00696 193.24274 L 733.9412 153.29625 L 609.6863 204.73628 Z " style="fill:rgb(239,232,198);stroke:none;fill-opacity:1;stroke-opacity:1;"/>
<path d="M 769.13135 391.48798 L 768.7188 393.89563 L 772.141 393.59763 L 769.3598 391.36536 Z " style="fill:rgb(201,211,226);stroke:none;fill-opacity:1;stroke-opacity:1;"/>
<path d="M 756.2557 380.45154 L 761.68243 372.21426 L 609.6863 204.73628 L 609.4401 204.83818 Z " style="fill:rgb(254,242,173);stroke:none;fill-opacity:1;stroke-opacity:1;"/>
<path d="M 734.93555 591.03595 L 723.82495 655.8713 L 797.5362 649.34766 Z " style="fill:rgb(235,172,195);stroke:none;fill-opacity:1;stroke-opacity:1;"/>
<path d="M 768.5106 395.11032 L 800 432.77625 L 800 415.95792 L 772.141 393.59763 L 768.7188 393.89563 Z " style="fill:rgb(236,213,205);stroke:none;fill-opacity:1;stroke-opacity:1;"/>
<path d="M 769.1774 391.21902 L 769.13135 391.48798 L 769.3598 391.36536 Z " style="fill:rgb(247,224,196);stroke:none;fill-opacity:1;stroke-opacity:1;"/>
<path d="M 800 211.35588 L 798.3641 220.90211 L 800 222.61884 Z " style="fill:rgb(235,226,216);stroke:none;fill-opacity:1;stroke-opacity:1;"/>
<path d="M 776.21423 350.15668 L 800 314.0523 L 800 230.16705 L 797.3707 226.6989 Z " style="fill:rgb(239,177,225);stroke:none;fill-opacity:1;stroke-opacity:1;"/>
<path d="M 772.00696 193.24274 L 739.8639 150.84433 L 733.9412 153.29625 Z " style="fill:rgb(198,235,176);stroke:none;fill-opacity:1;stroke-opacity:1;"/>
<path d="M 778.6351 134.79356 L 708.95 0 L 625.506 0 L 739.8639 150.84433 Z " style="fill:rgb(210,210,181);stroke:none;fill-opacity:1;stroke-opacity:1;"/>
<path d="M 772.00696 193.24274 L 797.3707 226.6989 L 798.3641 220.90211 Z " style="fill:rgb(225,178,204);stroke:none;fill-opacity:1;stroke-opacity:1;"/>
<path d="M 605.483 200.10486 L 609.4401 204.83818 L 609.6863 204.73628 Z " style="fill:rgb(170,232,197);stroke:none;fill-opacity:1;stroke-opacity:1;"/>
<path d="M 767.5781 393.99496 L 766.6126 392.84003 L 763.85754 394.3189 Z " style="fill:rgb(246,228,218);stroke:none;fill-opacity:1;stroke-opacity:1;"/>
<path d="M 465.13318 32.225513 L 490.77252 0 L 438.19214 0 Z " style="fill:rgb(219,175,234);stroke:none;fill-opacity:1;stroke-opacity:1;"/>
<path d="M 767.5781 393.99496 L 768.5106 395.11032 L 768.7188 393.89563 Z " style="fill:rgb(208,254,217);stroke:none;fill-opacity:1;stroke-opacity:1;"/>
<path d="M 605.483 200.10486 L 522.856 101.270676 L 522.1649 108.30031 Z " style="fill:rgb(185,193,231);stroke:none;fill-opacity:1;stroke-opacity:1;"/>
<path d="M 746.1012 395.86502 L 756.08496 380.71066 L 561.6255 224.63284 L 559.8016 225.38791 L 718.9066 398.23297 Z " style="fill:rgb(244,252,214);stroke:none;fill-opacity:1;stroke-opacity:1;"/>
<path d="M 756.2557 380.45154 L 756.08496 380.71066 L 757.2623 381.6556 Z " style="fill:rgb(244,231,247);stroke:none;fill-opacity:1;stroke-opacity:1;"/>
<path d="M 760.2743 443.17313 L 800 486.32947 L 800 432.77625 L 768.5106 395.11032 Z " style="fill:rgb(183,176,209);stroke:none;fill-opacity:1;stroke-opacity:1;"/>
<path d="M 189.4694 378.7009 L 133.36406 449.2184 L 249.72406 439.08655 L 192.67705 377.373 Z " style="fill:rgb(200,251,231);stroke:none;fill-opacity:1;stroke-opacity:1;"/>
<path d="M 522.92004 734.63043 L 499.5652 770.0807 L 545.53125 800 L 583.3467 800 Z " style="fill:rgb(238,215,210);stroke:none;fill-opacity:1;stroke-opacity:1;"/>
<path d="M 220.49098 212.26788 L 204.60167 97.03634 L 142.02948 38.751053 L 106.06425 283.6751 L 131.94046 311.66803 Z " style="fill:rgb(246,197,242);stroke:none;fill-opacity:1;stroke-opacity:1;"/>
<path d="M 252.12526 441.68414 L 251.74281 438.91074 L 249.72406 439.08655 Z " style="fill:rgb(239,202,178);stroke:none;fill-opacity:1;stroke-opacity:1;"/>
<path d="M 69.63255 244.26324 L 106.06425 283.6751 L 142.02948 38.751053 L 100.42822 0 L 86.71324 0 Z " style="fill:rgb(227,219,245);stroke:none;fill-opacity:1;stroke-opacity:1;"/>
<path d="M 470.81522 678.26337 L 466.57782 673.6793 L 466.086 678.68195 Z " style="fill:rgb(220,211,199);stroke:none;fill-opacity:1;stroke-opacity:1;"/>
<path d="M 189.4694 378.7009 L 191.52098 376.12234 L 137.25708 317.41956 L 129.0987 314.85797 L 96.03532 351.9724 L 85.80882 421.6151 Z " style="fill:rgb(214,184,242);stroke:none;fill-opacity:1;stroke-opacity:1;"/>
<path d="M 69.63255 244.26324 L 0 168.93463 L 0 274.32297 L 66.07971 295.07098 Z " style="fill:rgb(171,248,196);stroke:none;fill-opacity:1;stroke-opacity:1;"/>
<path d="M 392.57327 593.62103 L 466.57782 673.6793 L 479.01086 547.2221 Z " style="fill:rgb(173,172,216);stroke:none;fill-opacity:1;stroke-opacity:1;"/>
<path d="M 392.57327 593.62103 L 365.0888 563.88824 L 377.86234 601.5177 Z " style="fill:rgb(226,247,177);stroke:none;fill-opacity:1;stroke-opacity:1;"/>
<path d="M 238.7656 191.75415 L 269.38593 157.38211 L 207.54314 99.77627 Z " style="fill:rgb(230,203,185);stroke:none;fill-opacity:1;stroke-opacity:1;"/>
<path d="M 129.0987 314.85797 L 131.94046 311.66803 L 106.06425 283.6751 L 102.70233 306.56992 Z " style="fill:rgb(242,187,184);stroke:none;fill-opacity:1;stroke-opacity:1;"/>
<path d="M 59.210133 393.3096 L 8.379388 450.36832 L 11.479831 452.3864 L 56.37884 433.79874 Z " style="fill:rgb(216,252,179);stroke:none;fill-opacity:1;stroke-opacity:1;"/>
<path d="M 0 459.7744 L 3.719592 455.59906 L 0 457.13892 Z " style="fill:rgb(246,207,176);stroke:none;fill-opacity:1;stroke-opacity:1;"/>
<path d="M 3.719592 455.59906 L 8.379388 450.36832 L 0 444.91418 L 0 457.13892 Z " style="fill:rgb(240,240,212);stroke:none;fill-opacity:1;stroke-opacity:1;"/>
<path d="M 191.22133 0 L 203.22571 87.05762 L 207.54314 99.77627 L 269.38593 157.38211 L 356.29236 59.82754 L 281.75238 0 Z " style="fill:rgb(222,228,219);stroke:none;fill-opacity:1;stroke-opacity:1;"/>
<path d="M 96.03532 351.9724 L 59.210133 393.3096 L 56.37884 433.79874 L 85.80882 421.6151 Z " style="fill:rgb(253,181,216);stroke:none;fill-opacity:1;stroke-opacity:1;"/>
<path d="M 381.4289 31.61118 L 352.33057 0 L 281.75238 0 L 356.29236 59.82754 Z " style="fill:rgb(215,171,172);stroke:none;fill-opacity:1;stroke-opacity:1;"/>
<path d="M 235.46834 320.8859 L 268.50494 279.36298 L 238.7656 191.75415 L 220.49098 212.26788 Z " style="fill:rgb(171,188,250);stroke:none;fill-opacity:1;stroke-opacity:1;"/>
<path d="M 96.03532 351.9724 L 129.0987 314.85797 L 102.70233 306.56992 Z " style="fill:rgb(209,239,232);stroke:none;fill-opacity:1;stroke-opacity:1;"/>
<path d="M 551.9811 216.892 L 515.396 177.14746 L 514.45 186.76868 Z " style="fill:rgb(177,245,212);stroke:none;fill-opacity:1;stroke-opacity:1;"/>
<path d="M 737.96204 408.21942 L 746.1012 395.86502 L 718.9066 398.23297 L 731.3609 411.76282 Z " style="fill:rgb(237,175,182);stroke:none;fill-opacity:1;stroke-opacity:1;"/>
<path d="M 733.8478 414.46442 L 684.5676 489.26648 L 748.9132 509.46997 L 760.2743 443.17313 Z " style="fill:rgb(171,226,240);stroke:none;fill-opacity:1;stroke-opacity:1;"/>
<path d="M 426.5888 80.67105 L 409.3137 102.38376 L 514.45 186.76868 L 515.396 177.14746 Z " style="fill:rgb(242,195,201);stroke:none;fill-opacity:1;stroke-opacity:1;"/>
<path d="M 551.9811 216.892 L 559.8016 225.38791 L 561.6255 224.63284 Z " style="fill:rgb(195,180,211);stroke:none;fill-opacity:1;stroke-opacity:1;"/>
<path d="M 718.9066 398.23297 L 559.8016 225.38791 L 508.56772 246.5981 L 496.53632 368.96994 L 544.2758 413.43875 Z " style="fill:rgb(251,193,248);stroke:none;fill-opacity:1;stroke-opacity:1;"/>
<path d="M 800 486.32947 L 760.2743 443.17313 L 748.9132 509.46997 L 800 525.51044 Z " style="fill:rgb(238,203,233);stroke:none;fill-opacity:1;stroke-opacity:1;"/>
<path d="M 352.33057 0 L 381.4289 31.61118 L 409.58966 0 Z " style="fill:rgb(198,251,228);stroke:none;fill-opacity:1;stroke-opacity:1;"/>
<path d="M 778.6351 134.79356 L 800 176.12024 L 800 125.94874 Z " style="fill:rgb(181,244,189);stroke:none;fill-opacity:1;stroke-opacity:1;"/>
<path d="M 708.95 0 L 778.6351 134.79356 L 800 125.94874 L 800 0 Z " style="fill:rgb(219,236,202);stroke:none;fill-opacity:1;stroke-opacity:1;"/>
<path d="M 41.902805 716.22327 L 42.35201 717.55707 L 42.55636 716.1654 Z " style="fill:rgb(205,185,249);stroke:none;fill-opacity:1;stroke-opacity:1;"/>
<path d="M 5.926347 609.3919 L 47.77844 556.78894 L 53.18098 479.52966 L 21.56818 458.9529 L 0 460.83093 L 0 591.7937 Z " style="fill:rgb(232,193,243);stroke:none;fill-opacity:1;stroke-opacity:1;"/>
<path d="M 70.11547 800 L 60.622025 771.8095 L 32.140423 787.09814 L 31.249046 793.16846 L 30.771328 800 Z " style="fill:rgb(220,251,201);stroke:none;fill-opacity:1;stroke-opacity:1;"/>
<path d="M 60.622025 771.8095 L 42.35201 717.55707 L 32.140423 787.09814 Z " style="fill:rgb(214,194,196);stroke:none;fill-opacity:1;stroke-opacity:1;"/>
<path d="M 37.536312 703.25696 L 23.203732 660.6967 L 0 636.4047 L 0 719.9317 L 36.596775 716.6928 Z " style="fill:rgb(243,217,243);stroke:none;fill-opacity:1;stroke-opacity:1;"/>
<path d="M 41.902805 716.22327 L 37.536312 703.25696 L 36.596775 716.6928 Z " style="fill:rgb(254,185,178);stroke:none;fill-opacity:1;stroke-opacity:1;"/>
<path d="M 286.99054 694.5323 L 301.5335 800 L 445.23834 800 L 416.79355 716.2047 L 371.94604 687.01355 Z " style="fill:rgb(185,234,252);stroke:none;fill-opacity:1;stroke-opacity:1;"/>
<path d="M 240.52591 357.56415 L 251.74281 438.91074 L 320.6283 432.91263 L 298.6224 368.08575 L 251.13043 353.17398 Z " style="fill:rgb(254,211,214);stroke:none;fill-opacity:1;stroke-opacity:1;"/>
<path d="M 286.99054 694.5323 L 281.31128 653.34546 L 188.31427 703.26544 Z " style="fill:rgb(212,219,195);stroke:none;fill-opacity:1;stroke-opacity:1;"/>
<path d="M 133.36406 449.2184 L 90.11877 503.57242 L 277.47473 625.5222 L 252.12526 441.68414 L 249.72406 439.08655 Z " style="fill:rgb(217,195,199);stroke:none;fill-opacity:1;stroke-opacity:1;"/>
<path d="M 277.47473 625.5222 L 281.31128 653.34546 L 302.63504 641.89905 Z " style="fill:rgb(253,198,177);stroke:none;fill-opacity:1;stroke-opacity:1;"/>
<path d="M 203.22571 87.05762 L 204.60167 97.03634 L 207.54314 99.77627 Z " style="fill:rgb(243,244,253);stroke:none;fill-opacity:1;stroke-opacity:1;"/>
<path d="M 239.41327 349.495 L 240.52591 357.56415 L 251.13043 353.17398 Z " style="fill:rgb(182,217,180);stroke:none;fill-opacity:1;stroke-opacity:1;"/>
<path d="M 204.60167 97.03634 L 220.49098 212.26788 L 238.7656 191.75415 L 207.54314 99.77627 Z " style="fill:rgb(188,195,191);stroke:none;fill-opacity:1;stroke-opacity:1;"/>
<path d="M 251.74281 438.91074 L 252.12526 441.68414 L 365.0888 563.88824 L 320.6283 432.91263 Z " style="fill:rgb(178,216,240);stroke:none;fill-opacity:1;stroke-opacity:1;"/>
<path d="M 203.22571 87.05762 L 191.22133 0 L 173.6735 0 Z " style="fill:rgb(170,241,195);stroke:none;fill-opacity:1;stroke-opacity:1;"/>
<path d="M 235.46834 320.8859 L 218.0445 342.78555 L 239.41327 349.495 Z " style="fill:rgb(233,235,196);stroke:none;fill-opacity:1;stroke-opacity:1;"/>
<path d="M 565.58057 669.8764 L 522.92004 734.63043 L 583.3467 800 L 699.1261 800 L 723.82495 655.8713 Z " style="fill:rgb(252,217,224);stroke:none;fill-opacity:1;stroke-opacity:1;"/>
<path d="M 499.5652 770.0807 L 479.8541 800 L 545.53125 800 Z " style="fill:rgb(207,222,237);stroke:none;fill-opacity:1;stroke-opacity:1;"/>
<path d="M 662.1733 523.2588 L 565.58057 669.8764 L 723.82495 655.8713 L 734.93555 591.03595 Z " style="fill:rgb(216,203,224);stroke:none;fill-opacity:1;stroke-opacity:1;"/>
<path d="M 737.96204 408.21942 L 733.8478 414.46442 L 760.2743 443.17313 L 768.5106 395.11032 L 767.5781 393.99496 L 763.85754 394.3189 Z " style="fill:rgb(193,211,224);stroke:none;fill-opacity:1;stroke-opacity:1;"/>
<path d="M 662.1733 523.2588 L 684.5676 489.26648 L 622.99384 469.93332 L 611.53125 476.08633 Z " style="fill:rgb(205,212,211);stroke:none;fill-opacity:1;stroke-opacity:1;"/>
<path d="M 776.21423 350.15668 L 761.68243 372.21426 L 770.72656 382.17953 Z " style="fill:rgb(207,243,250);stroke:none;fill-opacity:1;stroke-opacity:1;"/>
<path d="M 761.68243 372.21426 L 756.2557 380.45154 L 757.2623 381.6556 L 769.1774 391.21902 L 770.72656 382.17953 Z " style="fill:rgb(177,214,173);stroke:none;fill-opacity:1;stroke-opacity:1;"/>
<path d="M 800 314.0523 L 776.21423 350.15668 L 770.72656 382.17953 L 775.8845 387.8629 L 800 374.91797 Z " style="fill:rgb(190,247,221);stroke:none;fill-opacity:1;stroke-opacity:1;"/>
<path d="M 756.08496 380.71066 L 746.1012 395.86502 L 763.85754 394.3189 L 766.6126 392.84003 L 757.2623 381.6556 Z " style="fill:rgb(171,222,228);stroke:none;fill-opacity:1;stroke-opacity:1;"/>
<path d="M 756.08496 380.71066 L 756.2557 380.45154 L 609.4401 204.83818 L 561.6255 224.63284 Z " style="fill:rgb(181,251,209);stroke:none;fill-opacity:1;stroke-opacity:1;"/>
<path d="M 499.5652 770.0807 L 522.92004 734.63043 L 470.81522 678.26337 L 466.086 678.68195 L 459.65396 744.1026 Z " style="fill:rgb(186,199,247);stroke:none;fill-opacity:1;stroke-opacity:1;"/>
<path d="M 746.1012 395.86502 L 737.96204 408.21942 L 763.85754 394.3189 Z " style="fill:rgb(176,203,211);stroke:none;fill-opacity:1;stroke-opacity:1;"/>
<path d="M 684.5676 489.26648 L 733.8478 414.46442 L 731.3609 411.76282 L 622.99384 469.93332 Z " style="fill:rgb(207,193,184);stroke:none;fill-opacity:1;stroke-opacity:1;"/>
<path d="M 324.62057 208.8325 L 268.50494 279.36298 L 288.33252 337.7728 L 409.28766 287.69885 Z " style="fill:rgb(187,245,243);stroke:none;fill-opacity:1;stroke-opacity:1;"/>
<path d="M 0 616.8406 L 5.926347 609.3919 L 0 591.7937 Z " style="fill:rgb(175,214,245);stroke:none;fill-opacity:1;stroke-opacity:1;"/>
<path d="M 459.52252 39.277412 L 465.13318 32.225513 L 438.19214 0 L 423.87595 0 Z " style="fill:rgb(219,206,191);stroke:none;fill-opacity:1;stroke-opacity:1;"/>
<path d="M 70.07461 528.76544 L 90.11877 503.57242 L 75.199936 493.86176 Z " style="fill:rgb(251,229,200);stroke:none;fill-opacity:1;stroke-opacity:1;"/>
<path d="M 47.77844 556.78894 L 70.07461 528.76544 L 75.199936 493.86176 L 53.18098 479.52966 Z " style="fill:rgb(250,205,223);stroke:none;fill-opacity:1;stroke-opacity:1;"/>
<path d="M 409.3137 102.38376 L 324.62057 208.8325 L 409.28766 287.69885 L 508.56772 246.5981 L 514.45 186.76868 Z " style="fill:rgb(239,184,172);stroke:none;fill-opacity:1;stroke-opacity:1;"/>
<path d="M 191.52098 376.12234 L 218.0445 342.78555 L 137.25708 317.41956 Z " style="fill:rgb(216,235,245);stroke:none;fill-opacity:1;stroke-opacity:1;"/>
<path d="M 459.52252 39.277412 L 426.5888 80.67105 L 515.396 177.14746 L 522.1649 108.30031 Z " style="fill:rgb(173,232,182);stroke:none;fill-opacity:1;stroke-opacity:1;"/>
<path d="M 490.77252 0 L 465.13318 32.225513 L 522.856 101.270676 L 532.8128 0 Z " style="fill:rgb(206,199,239);stroke:none;fill-opacity:1;stroke-opacity:1;"/>
<path d="M 133.36406 449.2184 L 189.4694 378.7009 L 85.80882 421.6151 L 81.08707 453.77036 Z " style="fill:rgb(215,238,208);stroke:none;fill-opacity:1;stroke-opacity:1;"/>
<path d="M 191.52098 376.12234 L 189.4694 378.7009 L 192.67705 377.373 Z " style="fill:rgb(242,199,206);stroke:none;fill-opacity:1;stroke-opacity:1;"/>
<path d="M 268.50494 279.36298 L 235.46834 320.8859 L 239.41327 349.495 L 251.13043 353.17398 L 288.33252 337.7728 Z " style="fill:rgb(243,252,232);stroke:none;fill-opacity:1;stroke-opacity:1;"/>
<path d="M 409.3137 102.38376 L 426.5888 80.67105 L 381.4289 31.61118 L 356.29236 59.82754 Z " style="fill:rgb(254,253,234);stroke:none;fill-opacity:1;stroke-opacity:1;"/>
<path d="M 47.77844 556.78894 L 5.926347 609.3919 L 23.203732 660.6967 L 39.331745 677.5812 Z " style="fill:rgb(201,208,174);stroke:none;fill-opacity:1;stroke-opacity:1;"/>
<path d="M 90.11877 503.57242 L 133.36406 449.2184 L 81.08707 453.77036 L 75.199936 493.86176 Z " style="fill:rgb(186,170,203);stroke:none;fill-opacity:1;stroke-opacity:1;"/>
<path d="M 218.0445 342.78555 L 235.46834 320.8859 L 220.49098 212.26788 L 131.94046 311.66803 L 137.25708 317.41956 Z " style="fill:rgb(186,200,213);stroke:none;fill-opacity:1;stroke-opacity:1;"/>
<path d="M 445.23834 800 L 416.79355 716.2047" style="stroke:rgb(0,42,84);stroke-width:0.8" />
<path d="M 377.86234 601.5177 L 365.0888 563.88824" style="stroke:rgb(0,42,84);stroke-width:0.8" />
<path d="M 377.86234 601.5177 L 302.63504 641.89905" style="stroke:rgb(0,42,84);stroke-width:0.8" />
<path d="M 377.86234 601.5177 L 392.57327 593.62103" style="stroke:rgb(0,42,84);stroke-width:0.8" />
<path d="M 32.140423 787.09814 L 31.655312 787.3586" style="stroke:rgb(0,42,84);stroke-width:0.8" />
<path d="M 32.140423 787.09814 L 31.249046 793.16846" style="stroke:rgb(0,42,84);stroke-width:0.8" />
<path d="M 32.140423 787.09814 L 42.35201 717.55707" style="stroke:rgb(0,42,84);stroke-width:0.8" />
<path d="M 405.8654 684.0116 L 377.86234 601.5177" style="stroke:rgb(0,42,84);stroke-width:0.8" />
<path d="M 188.31427 703.26544 L 106.0472 747.42566" style="stroke:rgb(0,42,84);stroke-width:0.8" />
<path d="M 42.55636 716.1654 L 47.03755 685.6483" style="stroke:rgb(0,42,84);stroke-width:0.8" />
<path d="M 405.8654 684.0116 L 371.94604 687.01355" style="stroke:rgb(0,42,84);stroke-width:0.8" />
<path d="M 42.55636 716.1654 L 41.902805 716.22327" style="stroke:rgb(0,42,84);stroke-width:0.8" />
<path d="M 405.8654 684.0116 L 466.086 678.68195" style="stroke:rgb(0,42,84);stroke-width:0.8" />
<path d="M 42.55636 716.1654 L 73.56593 713.42096" style="stroke:rgb(0,42,84);stroke-width:0.8" />
<path d="M 769.3598 391.36536 L 775.8845 387.8629" style="stroke:rgb(0,42,84);stroke-width:0.8" />
<path d="M 769.3598 391.36536 L 769.1774 391.21902" style="stroke:rgb(0,42,84);stroke-width:0.8" />
<path d="M 800 415.95792 L 772.141 393.59763" style="stroke:rgb(0,42,84);stroke-width:0.8" />
<path d="M 288.33252 337.7728 L 268.50494 279.36298" style="stroke:rgb(0,42,84);stroke-width:0.8" />
<path d="M 85.80882 421.6151 L 96.03532 351.9724" style="stroke:rgb(0,42,84);stroke-width:0.8" />
<path d="M 561.6255 224.63284 L 551.9811 216.892" style="stroke:rgb(0,42,84);stroke-width:0.8" />
<path d="M 561.6255 224.63284 L 559.8016 225.38791" style="stroke:rgb(0,42,84);stroke-width:0.8" />
<path d="M 288.33252 337.7728 L 251.13043 353.17398" style="stroke:rgb(0,42,84);stroke-width:0.8" />
<path d="M 85.80882 421.6151 L 56.37884 433.79874" style="stroke:rgb(0,42,84);stroke-width:0.8" />
<path d="M 561.6255 224.63284 L 609.4401 204.83818" style="stroke:rgb(0,42,84);stroke-width:0.8" />
<path d="M 320.6283 432.91263 L 298.6224 368.08575" style="stroke:rgb(0,42,84);stroke-width:0.8" />
<path d="M 763.85754 394.3189 L 766.6126 392.84003" style="stroke:rgb(0,42,84);stroke-width:0.8" />
<path d="M 81.08707 453.77036 L 85.80882 421.6151" style="stroke:rgb(0,42,84);stroke-width:0.8" />
<path d="M 772.141 393.59763 L 769.3598 391.36536" style="stroke:rgb(0,42,84);stroke-width:0.8" />
<path d="M 320.6283 432.91263 L 465.03964 420.33817" style="stroke:rgb(0,42,84);stroke-width:0.8" />
<path d="M 772.141 393.59763 L 768.7188 393.89563" style="stroke:rgb(0,42,84);stroke-width:0.8" />
<path d="M 81.08707 453.77036 L 133.36406 449.2184" style="stroke:rgb(0,42,84);stroke-width:0.8" />
<path d="M 0 460.83093 L 21.56818 458.9529" style="stroke:rgb(0,42,84);stroke-width:0.8" />
<path d="M 772.141 393.59763 L 780.4338 392.87555" style="stroke:rgb(0,42,84);stroke-width:0.8" />
<path d="M 31.655312 787.3586 L 8.105278 800" style="stroke:rgb(0,42,84);stroke-width:0.8" />
<path d="M 31.249046 793.16846 L 30.245876 800" style="stroke:rgb(0,42,84);stroke-width:0.8" />
<path d="M 36.596775 716.6928 L 0 719.9317" style="stroke:rgb(0,42,84);stroke-width:0.8" />
<path d="M 56.37884 433.79874 L 11.479831 452.3864" style="stroke:rgb(0,42,84);stroke-width:0.8" />
<path d="M 54.82235 456.05737 L 81.08707 453.77036" style="stroke:rgb(0,42,84);stroke-width:0.8" />
<path d="M 31.249046 793.16846 L 30.771328 800" style="stroke:rgb(0,42,84);stroke-width:0.8" />
<path d="M 36.596775 716.6928 L 31.655312 787.3586" style="stroke:rgb(0,42,84);stroke-width:0.8" />
<path d="M 31.249046 793.16846 L 31.655312 787.3586" style="stroke:rgb(0,42,84);stroke-width:0.8" />
<path d="M 54.82235 456.05737 L 56.37884 433.79874" style="stroke:rgb(0,42,84);stroke-width:0.8" />
<path d="M 56.37884 433.79874 L 59.210133 393.3096" style="stroke:rgb(0,42,84);stroke-width:0.8" />
<path d="M 54.82235 456.05737 L 53.18098 479.52966" style="stroke:rgb(0,42,84);stroke-width:0.8" />
<path d="M 775.8845 387.8629 L 800 374.91797" style="stroke:rgb(0,42,84);stroke-width:0.8" />
<path d="M 609.6863 204.73628 L 733.9412 153.29625" style="stroke:rgb(0,42,84);stroke-width:0.8" />
<path d="M 780.4338 392.87555 L 800 391.17184" style="stroke:rgb(0,42,84);stroke-width:0.8" />
<path d="M 609.6863 204.73628 L 605.483 200.10486" style="stroke:rgb(0,42,84);stroke-width:0.8" />
<path d="M 780.4338 392.87555 L 775.8845 387.8629" style="stroke:rgb(0,42,84);stroke-width:0.8" />
<path d="M 609.6863 204.73628 L 761.68243 372.21426" style="stroke:rgb(0,42,84);stroke-width:0.8" />
<path d="M 780.4338 392.87555 L 800 414.43472" style="stroke:rgb(0,42,84);stroke-width:0.8" />
<path d="M 416.79355 716.2047 L 405.8654 684.0116" style="stroke:rgb(0,42,84);stroke-width:0.8" />
<path d="M 302.63504 641.89905 L 281.31128 653.34546" style="stroke:rgb(0,42,84);stroke-width:0.8" />
<path d="M 75.199936 493.86176 L 81.08707 453.77036" style="stroke:rgb(0,42,84);stroke-width:0.8" />
<path d="M 371.94604 687.01355 L 286.99054 694.5323" style="stroke:rgb(0,42,84);stroke-width:0.8" />
<path d="M 21.56818 458.9529 L 54.82235 456.05737" style="stroke:rgb(0,42,84);stroke-width:0.8" />
<path d="M 11.479831 452.3864 L 3.719592 455.59906" style="stroke:rgb(0,42,84);stroke-width:0.8" />
<path d="M 53.18098 479.52966 L 47.77844 556.78894" style="stroke:rgb(0,42,84);stroke-width:0.8" />
<path d="M 416.79355 716.2047 L 371.94604 687.01355" style="stroke:rgb(0,42,84);stroke-width:0.8" />
<path d="M 371.94604 687.01355 L 302.63504 641.89905" style="stroke:rgb(0,42,84);stroke-width:0.8" />
<path d="M 11.479831 452.3864 L 21.56818 458.9529" style="stroke:rgb(0,42,84);stroke-width:0.8" />
<path d="M 416.79355 716.2047 L 459.65396 744.1026" style="stroke:rgb(0,42,84);stroke-width:0.8" />
<path d="M 0 444.91418 L 8.379388 450.36832" style="stroke:rgb(0,42,84);stroke-width:0.8" />
<path d="M 75.199936 493.86176 L 90.11877 503.57242" style="stroke:rgb(0,42,84);stroke-width:0.8" />
<path d="M 53.18098 479.52966 L 75.199936 493.86176" style="stroke:rgb(0,42,84);stroke-width:0.8" />
<path d="M 53.18098 479.52966 L 21.56818 458.9529" style="stroke:rgb(0,42,84);stroke-width:0.8" />
<path d="M 611.53125 476.08633 L 622.99384 469.93332" style="stroke:rgb(0,42,84);stroke-width:0.8" />
<path d="M 797.5362 649.34766 L 800 649.12964" style="stroke:rgb(0,42,84);stroke-width:0.8" />
<path d="M 207.54314 99.77627 L 203.22571 87.05762" style="stroke:rgb(0,42,84);stroke-width:0.8" />
<path d="M 142.02948 38.751053 L 147.71979 0" style="stroke:rgb(0,42,84);stroke-width:0.8" />
<path d="M 409.28766 287.69885 L 288.33252 337.7728" style="stroke:rgb(0,42,84);stroke-width:0.8" />
<path d="M 544.2758 413.43875 L 718.9066 398.23297" style="stroke:rgb(0,42,84);stroke-width:0.8" />
<path d="M 544.2758 413.43875 L 496.53632 368.96994" style="stroke:rgb(0,42,84);stroke-width:0.8" />
<path d="M 611.53125 476.08633 L 662.1733 523.2588" style="stroke:rgb(0,42,84);stroke-width:0.8" />
<path d="M 800 651.6427 L 797.5362 649.34766" style="stroke:rgb(0,42,84);stroke-width:0.8" />
<path d="M 409.28766 287.69885 L 324.62057 208.8325" style="stroke:rgb(0,42,84);stroke-width:0.8" />
<path d="M 207.54314 99.77627 L 204.60167 97.03634" style="stroke:rgb(0,42,84);stroke-width:0.8" />
<path d="M 544.2758 413.43875 L 595.7384 461.37552" style="stroke:rgb(0,42,84);stroke-width:0.8" />
<path d="M 142.02948 38.751053 L 100.42822 0" style="stroke:rgb(0,42,84);stroke-width:0.8" />
<path d="M 102.70233 306.56992 L 106.06425 283.6751" style="stroke:rgb(0,42,84);stroke-width:0.8" />
<path d="M 251.13043 353.17398 L 240.52591 357.56415" style="stroke:rgb(0,42,84);stroke-width:0.8" />
<path d="M 298.6224 368.08575 L 288.33252 337.7728" style="stroke:rgb(0,42,84);stroke-width:0.8" />
<path d="M 465.03964 420.33817 L 491.7142 418.01547" style="stroke:rgb(0,42,84);stroke-width:0.8" />
<path d="M 66.07971 295.07098 L 69.63255 244.26324" style="stroke:rgb(0,42,84);stroke-width:0.8" />
<path d="M 622.99384 469.93332 L 731.3609 411.76282" style="stroke:rgb(0,42,84);stroke-width:0.8" />
<path d="M 595.7384 461.37552 L 611.53125 476.08633" style="stroke:rgb(0,42,84);stroke-width:0.8" />
<path d="M 298.6224 368.08575 L 465.03964 420.33817" style="stroke:rgb(0,42,84);stroke-width:0.8" />
<path d="M 800 525.51044 L 748.9132 509.46997" style="stroke:rgb(0,42,84);stroke-width:0.8" />
<path d="M 298.6224 368.08575 L 251.13043 353.17398" style="stroke:rgb(0,42,84);stroke-width:0.8" />
<path d="M 102.70233 306.56992 L 129.0987 314.85797" style="stroke:rgb(0,42,84);stroke-width:0.8" />
<path d="M 66.07971 295.07098 L 0 274.32297" style="stroke:rgb(0,42,84);stroke-width:0.8" />
<path d="M 595.7384 461.37552 L 622.99384 469.93332" style="stroke:rgb(0,42,84);stroke-width:0.8" />
<path d="M 66.07971 295.07098 L 102.70233 306.56992" style="stroke:rgb(0,42,84);stroke-width:0.8" />
<path d="M 595.7384 461.37552 L 490.6939 428.3932" style="stroke:rgb(0,42,84);stroke-width:0.8" />
<path d="M 479.01086 547.2221 L 611.53125 476.08633" style="stroke:rgb(0,42,84);stroke-width:0.8" />
<path d="M 466.086 678.68195 L 470.81522 678.26337" style="stroke:rgb(0,42,84);stroke-width:0.8" />
<path d="M 514.45 186.76868 L 409.3137 102.38376" style="stroke:rgb(0,42,84);stroke-width:0.8" />
<path d="M 508.56772 246.5981 L 409.28766 287.69885" style="stroke:rgb(0,42,84);stroke-width:0.8" />
<path d="M 522.1649 108.30031 L 459.52252 39.277412" style="stroke:rgb(0,42,84);stroke-width:0.8" />
<path d="M 459.65396 744.1026 L 499.5652 770.0807" style="stroke:rgb(0,42,84);stroke-width:0.8" />
<path d="M 496.53632 368.96994 L 409.28766 287.69885" style="stroke:rgb(0,42,84);stroke-width:0.8" />
<path d="M 491.7142 418.01547 L 544.2758 413.43875" style="stroke:rgb(0,42,84);stroke-width:0.8" />
<path d="M 490.6939 428.3932 L 465.03964 420.33817" style="stroke:rgb(0,42,84);stroke-width:0.8" />
<path d="M 491.7142 418.01547 L 496.53632 368.96994" style="stroke:rgb(0,42,84);stroke-width:0.8" />
<path d="M 466.086 678.68195 L 459.65396 744.1026" style="stroke:rgb(0,42,84);stroke-width:0.8" />
<path d="M 522.1649 108.30031 L 515.396 177.14746" style="stroke:rgb(0,42,84);stroke-width:0.8" />
<path d="M 522.1649 108.30031 L 522.856 101.270676" style="stroke:rgb(0,42,84);stroke-width:0.8" />
<path d="M 459.65396 744.1026 L 454.1582 800" style="stroke:rgb(0,42,84);stroke-width:0.8" />
<path d="M 496.53632 368.96994 L 508.56772 246.5981" style="stroke:rgb(0,42,84);stroke-width:0.8" />
<path d="M 479.01086 547.2221 L 466.57782 673.6793" style="stroke:rgb(0,42,84);stroke-width:0.8" />
<path d="M 508.56772 246.5981 L 514.45 186.76868" style="stroke:rgb(0,42,84);stroke-width:0.8" />
<path d="M 490.6939 428.3932 L 479.01086 547.2221" style="stroke:rgb(0,42,84);stroke-width:0.8" />
<path d="M 490.6939 428.3932 L 491.7142 418.01547" style="stroke:rgb(0,42,84);stroke-width:0.8" />
<path d="M 733.9412 153.29625 L 739.8639 150.84433" style="stroke:rgb(0,42,84);stroke-width:0.8" />
<path d="M 800 222.61884 L 798.3641 220.90211" style="stroke:rgb(0,42,84);stroke-width:0.8" />
<path d="M 733.9412 153.29625 L 587.8624 0" style="stroke:rgb(0,42,84);stroke-width:0.8" />
<path d="M 25.259613 0 L 0 7.6204777" style="stroke:rgb(0,42,84);stroke-width:0.8" />
<path d="M 106.0472 747.42566 L 60.622025 771.8095" style="stroke:rgb(0,42,84);stroke-width:0.8" />
<path d="M 47.03755 685.6483 L 70.07461 528.76544" style="stroke:rgb(0,42,84);stroke-width:0.8" />
<path d="M 73.56593 713.42096 L 188.31427 703.26544" style="stroke:rgb(0,42,84);stroke-width:0.8" />
<path d="M 39.331745 677.5812 L 37.536312 703.25696" style="stroke:rgb(0,42,84);stroke-width:0.8" />
<path d="M 106.0472 747.42566 L 156.2662 800" style="stroke:rgb(0,42,84);stroke-width:0.8" />
<path d="M 73.56593 713.42096 L 106.0472 747.42566" style="stroke:rgb(0,42,84);stroke-width:0.8" />
<path d="M 0 636.4047 L 23.203732 660.6967" style="stroke:rgb(0,42,84);stroke-width:0.8" />
<path d="M 47.03755 685.6483 L 73.56593 713.42096" style="stroke:rgb(0,42,84);stroke-width:0.8" />
<path d="M 39.331745 677.5812 L 47.03755 685.6483" style="stroke:rgb(0,42,84);stroke-width:0.8" />
<path d="M 769.1774 391.21902 L 757.2623 381.6556" style="stroke:rgb(0,42,84);stroke-width:0.8" />
<path d="M 769.13135 391.48798 L 769.3598 391.36536" style="stroke:rgb(0,42,84);stroke-width:0.8" />
<path d="M 768.7188 393.89563 L 767.5781 393.99496" style="stroke:rgb(0,42,84);stroke-width:0.8" />
<path d="M 770.72656 382.17953 L 775.8845 387.8629" style="stroke:rgb(0,42,84);stroke-width:0.8" />
<path d="M 734.93555 591.03595 L 797.5362 649.34766" style="stroke:rgb(0,42,84);stroke-width:0.8" />
<path d="M 748.9132 509.46997 L 684.5676 489.26648" style="stroke:rgb(0,42,84);stroke-width:0.8" />
<path d="M 723.82495 655.8713 L 797.5362 649.34766" style="stroke:rgb(0,42,84);stroke-width:0.8" />
<path d="M 798.3641 220.90211 L 772.00696 193.24274" style="stroke:rgb(0,42,84);stroke-width:0.8" />
<path d="M 748.9132 509.46997 L 734.93555 591.03595" style="stroke:rgb(0,42,84);stroke-width:0.8" />
<path d="M 699.1261 800 L 723.82495 655.8713" style="stroke:rgb(0,42,84);stroke-width:0.8" />
<path d="M 798.3641 220.90211 L 797.3707 226.6989" style="stroke:rgb(0,42,84);stroke-width:0.8" />
<path d="M 768.7188 393.89563 L 769.13135 391.48798" style="stroke:rgb(0,42,84);stroke-width:0.8" />
<path d="M 770.72656 382.17953 L 769.1774 391.21902" style="stroke:rgb(0,42,84);stroke-width:0.8" />
<path d="M 723.82495 655.8713 L 734.93555 591.03595" style="stroke:rgb(0,42,84);stroke-width:0.8" />
<path d="M 748.9132 509.46997 L 760.2743 443.17313" style="stroke:rgb(0,42,84);stroke-width:0.8" />
<path d="M 769.13135 391.48798 L 769.1774 391.21902" style="stroke:rgb(0,42,84);stroke-width:0.8" />
<path d="M 798.3641 220.90211 L 800 211.35588" style="stroke:rgb(0,42,84);stroke-width:0.8" />
<path d="M 739.8639 150.84433 L 778.6351 134.79356" style="stroke:rgb(0,42,84);stroke-width:0.8" />
<path d="M 772.00696 193.24274 L 733.9412 153.29625" style="stroke:rgb(0,42,84);stroke-width:0.8" />
<path d="M 797.3707 226.6989 L 776.21423 350.15668" style="stroke:rgb(0,42,84);stroke-width:0.8" />
<path d="M 797.3707 226.6989 L 800 230.16705" style="stroke:rgb(0,42,84);stroke-width:0.8" />
<path d="M 739.8639 150.84433 L 772.00696 193.24274" style="stroke:rgb(0,42,84);stroke-width:0.8" />
<path d="M 739.8639 150.84433 L 625.506 0" style="stroke:rgb(0,42,84);stroke-width:0.8" />
<path d="M 797.3707 226.6989 L 772.00696 193.24274" style="stroke:rgb(0,42,84);stroke-width:0.8" />
<path d="M 609.4401 204.83818 L 609.6863 204.73628" style="stroke:rgb(0,42,84);stroke-width:0.8" />
<path d="M 766.6126 392.84003 L 769.13135 391.48798" style="stroke:rgb(0,42,84);stroke-width:0.8" />
<path d="M 605.483 200.10486 L 522.1649 108.30031" style="stroke:rgb(0,42,84);stroke-width:0.8" />
<path d="M 522.856 101.270676 L 532.8128 0" style="stroke:rgb(0,42,84);stroke-width:0.8" />
<path d="M 757.2623 381.6556 L 756.08496 380.71066" style="stroke:rgb(0,42,84);stroke-width:0.8" />
<path d="M 767.5781 393.99496 L 763.85754 394.3189" style="stroke:rgb(0,42,84);stroke-width:0.8" />
<path d="M 768.5106 395.11032 L 768.7188 393.89563" style="stroke:rgb(0,42,84);stroke-width:0.8" />
<path d="M 609.4401 204.83818 L 605.483 200.10486" style="stroke:rgb(0,42,84);stroke-width:0.8" />
<path d="M 766.6126 392.84003 L 767.5781 393.99496" style="stroke:rgb(0,42,84);stroke-width:0.8" />
<path d="M 522.856 101.270676 L 465.13318 32.225513" style="stroke:rgb(0,42,84);stroke-width:0.8" />
<path d="M 768.5106 395.11032 L 767.5781 393.99496" style="stroke:rgb(0,42,84);stroke-width:0.8" />
<path d="M 522.856 101.270676 L 605.483 200.10486" style="stroke:rgb(0,42,84);stroke-width:0.8" />
<path d="M 757.2623 381.6556 L 766.6126 392.84003" style="stroke:rgb(0,42,84);stroke-width:0.8" />
<path d="M 609.4401 204.83818 L 756.2557 380.45154" style="stroke:rgb(0,42,84);stroke-width:0.8" />
<path d="M 768.5106 395.11032 L 800 432.77625" style="stroke:rgb(0,42,84);stroke-width:0.8" />
<path d="M 365.0888 563.88824 L 320.6283 432.91263" style="stroke:rgb(0,42,84);stroke-width:0.8" />
<path d="M 392.57327 593.62103 L 479.01086 547.2221" style="stroke:rgb(0,42,84);stroke-width:0.8" />
<path d="M 249.72406 439.08655 L 251.74281 438.91074" style="stroke:rgb(0,42,84);stroke-width:0.8" />
<path d="M 106.06425 283.6751 L 142.02948 38.751053" style="stroke:rgb(0,42,84);stroke-width:0.8" />
<path d="M 192.67705 377.373 L 189.4694 378.7009" style="stroke:rgb(0,42,84);stroke-width:0.8" />
<path d="M 69.63255 244.26324 L 86.71324 0" style="stroke:rgb(0,42,84);stroke-width:0.8" />
<path d="M 137.25708 317.41956 L 218.0445 342.78555" style="stroke:rgb(0,42,84);stroke-width:0.8" />
<path d="M 470.81522 678.26337 L 565.58057 669.8764" style="stroke:rgb(0,42,84);stroke-width:0.8" />
<path d="M 466.57782 673.6793 L 466.086 678.68195" style="stroke:rgb(0,42,84);stroke-width:0.8" />
<path d="M 192.67705 377.373 L 249.72406 439.08655" style="stroke:rgb(0,42,84);stroke-width:0.8" />
<path d="M 470.81522 678.26337 L 522.92004 734.63043" style="stroke:rgb(0,42,84);stroke-width:0.8" />
<path d="M 137.25708 317.41956 L 131.94046 311.66803" style="stroke:rgb(0,42,84);stroke-width:0.8" />
<path d="M 365.0888 563.88824 L 252.12526 441.68414" style="stroke:rgb(0,42,84);stroke-width:0.8" />
<path d="M 106.06425 283.6751 L 69.63255 244.26324" style="stroke:rgb(0,42,84);stroke-width:0.8" />
<path d="M 466.57782 673.6793 L 470.81522 678.26337" style="stroke:rgb(0,42,84);stroke-width:0.8" />
<path d="M 137.25708 317.41956 L 191.52098 376.12234" style="stroke:rgb(0,42,84);stroke-width:0.8" />
<path d="M 0 168.93463 L 69.63255 244.26324" style="stroke:rgb(0,42,84);stroke-width:0.8" />
<path d="M 466.57782 673.6793 L 392.57327 593.62103" style="stroke:rgb(0,42,84);stroke-width:0.8" />
<path d="M 365.0888 563.88824 L 392.57327 593.62103" style="stroke:rgb(0,42,84);stroke-width:0.8" />
<path d="M 238.7656 191.75415 L 207.54314 99.77627" style="stroke:rgb(0,42,84);stroke-width:0.8" />
<path d="M 96.03532 351.9724 L 102.70233 306.56992" style="stroke:rgb(0,42,84);stroke-width:0.8" />
<path d="M 59.210133 393.3096 L 66.07971 295.07098" style="stroke:rgb(0,42,84);stroke-width:0.8" />
<path d="M 3.719592 455.59906 L 0 457.13892" style="stroke:rgb(0,42,84);stroke-width:0.8" />
<path d="M 8.379388 450.36832 L 11.479831 452.3864" style="stroke:rgb(0,42,84);stroke-width:0.8" />
<path d="M 269.38593 157.38211 L 207.54314 99.77627" style="stroke:rgb(0,42,84);stroke-width:0.8" />
<path d="M 129.0987 314.85797 L 137.25708 317.41956" style="stroke:rgb(0,42,84);stroke-width:0.8" />
<path d="M 356.29236 59.82754 L 281.75238 0" style="stroke:rgb(0,42,84);stroke-width:0.8" />
<path d="M 131.94046 311.66803 L 106.06425 283.6751" style="stroke:rgb(0,42,84);stroke-width:0.8" />
<path d="M 269.38593 157.38211 L 238.7656 191.75415" style="stroke:rgb(0,42,84);stroke-width:0.8" />
<path d="M 131.94046 311.66803 L 129.0987 314.85797" style="stroke:rgb(0,42,84);stroke-width:0.8" />
<path d="M 8.379388 450.36832 L 59.210133 393.3096" style="stroke:rgb(0,42,84);stroke-width:0.8" />
<path d="M 3.719592 455.59906 L 0 459.7744" style="stroke:rgb(0,42,84);stroke-width:0.8" />
<path d="M 8.379388 450.36832 L 3.719592 455.59906" style="stroke:rgb(0,42,84);stroke-width:0.8" />
<path d="M 356.29236 59.82754 L 269.38593 157.38211" style="stroke:rgb(0,42,84);stroke-width:0.8" />
<path d="M 59.210133 393.3096 L 96.03532 351.9724" style="stroke:rgb(0,42,84);stroke-width:0.8" />
<path d="M 409.58966 0 L 381.4289 31.61118" style="stroke:rgb(0,42,84);stroke-width:0.8" />
<path d="M 131.94046 311.66803 L 220.49098 212.26788" style="stroke:rgb(0,42,84);stroke-width:0.8" />
<path d="M 129.0987 314.85797 L 96.03532 351.9724" style="stroke:rgb(0,42,84);stroke-width:0.8" />
<path d="M 551.9811 216.892 L 514.45 186.76868" style="stroke:rgb(0,42,84);stroke-width:0.8" />
<path d="M 559.8016 225.38791 L 508.56772 246.5981" style="stroke:rgb(0,42,84);stroke-width:0.8" />
<path d="M 718.9066 398.23297 L 746.1012 395.86502" style="stroke:rgb(0,42,84);stroke-width:0.8" />
<path d="M 731.3609 411.76282 L 737.96204 408.21942" style="stroke:rgb(0,42,84);stroke-width:0.8" />
<path d="M 515.396 177.14746 L 514.45 186.76868" style="stroke:rgb(0,42,84);stroke-width:0.8" />
<path d="M 760.2743 443.17313 L 768.5106 395.11032" style="stroke:rgb(0,42,84);stroke-width:0.8" />
<path d="M 381.4289 31.61118 L 356.29236 59.82754" style="stroke:rgb(0,42,84);stroke-width:0.8" />
<path d="M 515.396 177.14746 L 551.9811 216.892" style="stroke:rgb(0,42,84);stroke-width:0.8" />
<path d="M 731.3609 411.76282 L 718.9066 398.23297" style="stroke:rgb(0,42,84);stroke-width:0.8" />
<path d="M 731.3609 411.76282 L 733.8478 414.46442" style="stroke:rgb(0,42,84);stroke-width:0.8" />
<path d="M 381.4289 31.61118 L 426.5888 80.67105" style="stroke:rgb(0,42,84);stroke-width:0.8" />
<path d="M 559.8016 225.38791 L 551.9811 216.892" style="stroke:rgb(0,42,84);stroke-width:0.8" />
<path d="M 559.8016 225.38791 L 718.9066 398.23297" style="stroke:rgb(0,42,84);stroke-width:0.8" />
<path d="M 760.2743 443.17313 L 800 486.32947" style="stroke:rgb(0,42,84);stroke-width:0.8" />
<path d="M 381.4289 31.61118 L 352.33057 0" style="stroke:rgb(0,42,84);stroke-width:0.8" />
<path d="M 778.6351 134.79356 L 800 125.94874" style="stroke:rgb(0,42,84);stroke-width:0.8" />
<path d="M 800 176.12024 L 778.6351 134.79356" style="stroke:rgb(0,42,84);stroke-width:0.8" />
<path d="M 778.6351 134.79356 L 708.95 0" style="stroke:rgb(0,42,84);stroke-width:0.8" />
<path d="M 42.35201 717.55707 L 42.55636 716.1654" style="stroke:rgb(0,42,84);stroke-width:0.8" />
<path d="M 41.902805 716.22327 L 36.596775 716.6928" style="stroke:rgb(0,42,84);stroke-width:0.8" />
<path d="M 60.622025 771.8095 L 32.140423 787.09814" style="stroke:rgb(0,42,84);stroke-width:0.8" />
<path d="M 37.536312 703.25696 L 36.596775 716.6928" style="stroke:rgb(0,42,84);stroke-width:0.8" />
<path d="M 23.203732 660.6967 L 39.331745 677.5812" style="stroke:rgb(0,42,84);stroke-width:0.8" />
<path d="M 42.35201 717.55707 L 41.902805 716.22327" style="stroke:rgb(0,42,84);stroke-width:0.8" />
<path d="M 23.203732 660.6967 L 5.926347 609.3919" style="stroke:rgb(0,42,84);stroke-width:0.8" />
<path d="M 60.622025 771.8095 L 70.11547 800" style="stroke:rgb(0,42,84);stroke-width:0.8" />
<path d="M 42.35201 717.55707 L 60.622025 771.8095" style="stroke:rgb(0,42,84);stroke-width:0.8" />
<path d="M 23.203732 660.6967 L 37.536312 703.25696" style="stroke:rgb(0,42,84);stroke-width:0.8" />
<path d="M 37.536312 703.25696 L 41.902805 716.22327" style="stroke:rgb(0,42,84);stroke-width:0.8" />
<path d="M 281.31128 653.34546 L 188.31427 703.26544" style="stroke:rgb(0,42,84);stroke-width:0.8" />
<path d="M 286.99054 694.5323 L 188.31427 703.26544" style="stroke:rgb(0,42,84);stroke-width:0.8" />
<path d="M 277.47473 625.5222 L 302.63504 641.89905" style="stroke:rgb(0,42,84);stroke-width:0.8" />
<path d="M 203.22571 87.05762 L 173.6735 0" style="stroke:rgb(0,42,84);stroke-width:0.8" />
<path d="M 204.60167 97.03634 L 142.02948 38.751053" style="stroke:rgb(0,42,84);stroke-width:0.8" />
<path d="M 240.52591 357.56415 L 192.67705 377.373" style="stroke:rgb(0,42,84);stroke-width:0.8" />
<path d="M 251.74281 438.91074 L 320.6283 432.91263" style="stroke:rgb(0,42,84);stroke-width:0.8" />
<path d="M 239.41327 349.495 L 251.13043 353.17398" style="stroke:rgb(0,42,84);stroke-width:0.8" />
<path d="M 252.12526 441.68414 L 249.72406 439.08655" style="stroke:rgb(0,42,84);stroke-width:0.8" />
<path d="M 220.49098 212.26788 L 238.7656 191.75415" style="stroke:rgb(0,42,84);stroke-width:0.8" />
<path d="M 301.5335 800 L 286.99054 694.5323" style="stroke:rgb(0,42,84);stroke-width:0.8" />
<path d="M 251.74281 438.91074 L 240.52591 357.56415" style="stroke:rgb(0,42,84);stroke-width:0.8" />
<path d="M 281.31128 653.34546 L 286.99054 694.5323" style="stroke:rgb(0,42,84);stroke-width:0.8" />
<path d="M 252.12526 441.68414 L 277.47473 625.5222" style="stroke:rgb(0,42,84);stroke-width:0.8" />
<path d="M 281.31128 653.34546 L 277.47473 625.5222" style="stroke:rgb(0,42,84);stroke-width:0.8" />
<path d="M 204.60167 97.03634 L 203.22571 87.05762" style="stroke:rgb(0,42,84);stroke-width:0.8" />
<path d="M 240.52591 357.56415 L 239.41327 349.495" style="stroke:rgb(0,42,84);stroke-width:0.8" />
<path d="M 220.49098 212.26788 L 204.60167 97.03634" style="stroke:rgb(0,42,84);stroke-width:0.8" />
<path d="M 252.12526 441.68414 L 251.74281 438.91074" style="stroke:rgb(0,42,84);stroke-width:0.8" />
<path d="M 191.22133 0 L 203.22571 87.05762" style="stroke:rgb(0,42,84);stroke-width:0.8" />
<path d="M 220.49098 212.26788 L 235.46834 320.8859" style="stroke:rgb(0,42,84);stroke-width:0.8" />
<path d="M 761.68243 372.21426 L 770.72656 382.17953" style="stroke:rgb(0,42,84);stroke-width:0.8" />
<path d="M 662.1733 523.2588 L 734.93555 591.03595" style="stroke:rgb(0,42,84);stroke-width:0.8" />
<path d="M 499.5652 770.0807 L 545.53125 800" style="stroke:rgb(0,42,84);stroke-width:0.8" />
<path d="M 684.5676 489.26648 L 622.99384 469.93332" style="stroke:rgb(0,42,84);stroke-width:0.8" />
<path d="M 776.21423 350.15668 L 770.72656 382.17953" style="stroke:rgb(0,42,84);stroke-width:0.8" />
<path d="M 756.08496 380.71066 L 561.6255 224.63284" style="stroke:rgb(0,42,84);stroke-width:0.8" />
<path d="M 756.2557 380.45154 L 757.2623 381.6556" style="stroke:rgb(0,42,84);stroke-width:0.8" />
<path d="M 565.58057 669.8764 L 723.82495 655.8713" style="stroke:rgb(0,42,84);stroke-width:0.8" />
<path d="M 522.92004 734.63043 L 583.3467 800" style="stroke:rgb(0,42,84);stroke-width:0.8" />
<path d="M 746.1012 395.86502 L 763.85754 394.3189" style="stroke:rgb(0,42,84);stroke-width:0.8" />
<path d="M 737.96204 408.21942 L 763.85754 394.3189" style="stroke:rgb(0,42,84);stroke-width:0.8" />
<path d="M 733.8478 414.46442 L 760.2743 443.17313" style="stroke:rgb(0,42,84);stroke-width:0.8" />
<path d="M 522.92004 734.63043 L 565.58057 669.8764" style="stroke:rgb(0,42,84);stroke-width:0.8" />
<path d="M 479.8541 800 L 499.5652 770.0807" style="stroke:rgb(0,42,84);stroke-width:0.8" />
<path d="M 565.58057 669.8764 L 662.1733 523.2588" style="stroke:rgb(0,42,84);stroke-width:0.8" />
<path d="M 733.8478 414.46442 L 737.96204 408.21942" style="stroke:rgb(0,42,84);stroke-width:0.8" />
<path d="M 684.5676 489.26648 L 662.1733 523.2588" style="stroke:rgb(0,42,84);stroke-width:0.8" />
<path d="M 761.68243 372.21426 L 776.21423 350.15668" style="stroke:rgb(0,42,84);stroke-width:0.8" />
<path d="M 756.2557 380.45154 L 761.68243 372.21426" style="stroke:rgb(0,42,84);stroke-width:0.8" />
<path d="M 776.21423 350.15668 L 800 314.0523" style="stroke:rgb(0,42,84);stroke-width:0.8" />
<path d="M 746.1012 395.86502 L 756.08496 380.71066" style="stroke:rgb(0,42,84);stroke-width:0.8" />
<path d="M 756.2557 380.45154 L 756.08496 380.71066" style="stroke:rgb(0,42,84);stroke-width:0.8" />
<path d="M 522.92004 734.63043 L 499.5652 770.0807" style="stroke:rgb(0,42,84);stroke-width:0.8" />
<path d="M 737.96204 408.21942 L 746.1012 395.86502" style="stroke:rgb(0,42,84);stroke-width:0.8" />
<path d="M 733.8478 414.46442 L 684.5676 489.26648" style="stroke:rgb(0,42,84);stroke-width:0.8" />
<path d="M 268.50494 279.36298 L 238.7656 191.75415" style="stroke:rgb(0,42,84);stroke-width:0.8" />
<path d="M 133.36406 449.2184 L 249.72406 439.08655" style="stroke:rgb(0,42,84);stroke-width:0.8" />
<path d="M 47.77844 556.78894 L 39.331745 677.5812" style="stroke:rgb(0,42,84);stroke-width:0.8" />
<path d="M 90.11877 503.57242 L 277.47473 625.5222" style="stroke:rgb(0,42,84);stroke-width:0.8" />
<path d="M 324.62057 208.8325 L 269.38593 157.38211" style="stroke:rgb(0,42,84);stroke-width:0.8" />
<path d="M 409.3137 102.38376 L 356.29236 59.82754" style="stroke:rgb(0,42,84);stroke-width:0.8" />
<path d="M 459.52252 39.277412 L 423.87595 0" style="stroke:rgb(0,42,84);stroke-width:0.8" />
<path d="M 70.07461 528.76544 L 75.199936 493.86176" style="stroke:rgb(0,42,84);stroke-width:0.8" />
<path d="M 465.13318 32.225513 L 438.19214 0" style="stroke:rgb(0,42,84);stroke-width:0.8" />
<path d="M 189.4694 378.7009 L 85.80882 421.6151" style="stroke:rgb(0,42,84);stroke-width:0.8" />
<path d="M 218.0445 342.78555 L 239.41327 349.495" style="stroke:rgb(0,42,84);stroke-width:0.8" />
<path d="M 191.52098 376.12234 L 192.67705 377.373" style="stroke:rgb(0,42,84);stroke-width:0.8" />
<path d="M 426.5888 80.67105 L 515.396 177.14746" style="stroke:rgb(0,42,84);stroke-width:0.8" />
<path d="M 5.926347 609.3919 L 0 591.7937" style="stroke:rgb(0,42,84);stroke-width:0.8" />
<path d="M 235.46834 320.8859 L 239.41327 349.495" style="stroke:rgb(0,42,84);stroke-width:0.8" />
<path d="M 268.50494 279.36298 L 324.62057 208.8325" style="stroke:rgb(0,42,84);stroke-width:0.8" />
<path d="M 5.926347 609.3919 L 0 616.8406" style="stroke:rgb(0,42,84);stroke-width:0.8" />
<path d="M 465.13318 32.225513 L 459.52252 39.277412" style="stroke:rgb(0,42,84);stroke-width:0.8" />
<path d="M 90.11877 503.57242 L 70.07461 528.76544" style="stroke:rgb(0,42,84);stroke-width:0.8" />
<path d="M 70.07461 528.76544 L 47.77844 556.78894" style="stroke:rgb(0,42,84);stroke-width:0.8" />
<path d="M 324.62057 208.8325 L 409.3137 102.38376" style="stroke:rgb(0,42,84);stroke-width:0.8" />
<path d="M 218.0445 342.78555 L 191.52098 376.12234" style="stroke:rgb(0,42,84);stroke-width:0.8" />
<path d="M 426.5888 80.67105 L 459.52252 39.277412" style="stroke:rgb(0,42,84);stroke-width:0.8" />
<path d="M 465.13318 32.225513 L 490.77252 0" style="stroke:rgb(0,42,84);stroke-width:0.8" />
<path d="M 189.4694 378.7009 L 133.36406 449.2184" style="stroke:rgb(0,42,84);stroke-width:0.8" />
<path d="M 189.4694 378.7009 L 191.52098 376.12234" style="stroke:rgb(0,42,84);stroke-width:0.8" />
<path d="M 235.46834 320.8859 L 268.50494 279.36298" style="stroke:rgb(0,42,84);stroke-width:0.8" />
<path d="M 426.5888 80.67105 L 409.3137 102.38376" style="stroke:rgb(0,42,84);stroke-width:0.8" />
<path d="M 5.926347 609.3919 L 47.77844 556.78894" style="stroke:rgb(0,42,84);stroke-width:0.8" />
<path d="M 133.36406 449.2184 L 90.11877 503.57242" style="stroke:rgb(0,42,84);stroke-width:0.8" />
<path d="M 235.46834 320.8859 L 218.0445 342.78555" style="stroke:rgb(0,42,84);stroke-width:0.8" />
</svg>
